<mxfile host="app.diagrams.net" modified="2022-08-19T01:03:11.526Z" agent="5.0 (Windows NT 10.0; Win64; x64) AppleWebKit/537.36 (KHTML, like Gecko) Chrome/104.0.0.0 Safari/537.36" etag="liZaWosnNqvaZ5bS_7P7" version="20.0.1" type="github">
  <diagram id="ews9b-a01BWa7JfwVcGo" name="第 1 页">
    <mxGraphModel dx="1673" dy="831" grid="1" gridSize="10" guides="1" tooltips="1" connect="1" arrows="1" fold="1" page="1" pageScale="1" pageWidth="827" pageHeight="1169" math="0" shadow="0">
      <root>
        <mxCell id="0" />
        <mxCell id="1" parent="0" />
        <mxCell id="XPM9AESgH1F6cBTV4E59-2" value="" style="rounded=0;whiteSpace=wrap;html=1;dashed=1;" vertex="1" parent="1">
          <mxGeometry x="780" y="330" width="600" height="450" as="geometry" />
        </mxCell>
        <mxCell id="XPM9AESgH1F6cBTV4E59-3" value="socket" style="shape=flexArrow;endArrow=classic;startArrow=classic;html=1;rounded=0;width=28;startSize=5.32;exitX=1;exitY=0.5;exitDx=0;exitDy=0;" edge="1" parent="1" source="XPM9AESgH1F6cBTV4E59-1" target="XPM9AESgH1F6cBTV4E59-2">
          <mxGeometry width="100" height="100" relative="1" as="geometry">
            <mxPoint x="440" y="620" as="sourcePoint" />
            <mxPoint x="540" y="520" as="targetPoint" />
          </mxGeometry>
        </mxCell>
        <mxCell id="XPM9AESgH1F6cBTV4E59-33" value="" style="group" vertex="1" connectable="0" parent="1">
          <mxGeometry x="130" y="350" width="583.1500000000001" height="470" as="geometry" />
        </mxCell>
        <mxCell id="XPM9AESgH1F6cBTV4E59-38" value="" style="group" vertex="1" connectable="0" parent="XPM9AESgH1F6cBTV4E59-33">
          <mxGeometry x="60" y="20" width="523.1500000000001" height="450" as="geometry" />
        </mxCell>
        <mxCell id="XPM9AESgH1F6cBTV4E59-1" value="" style="rounded=0;whiteSpace=wrap;html=1;dashed=1;" vertex="1" parent="XPM9AESgH1F6cBTV4E59-38">
          <mxGeometry x="140.00245901639346" y="-40" width="393.1475409836066" height="450" as="geometry" />
        </mxCell>
        <mxCell id="XPM9AESgH1F6cBTV4E59-6" value="&lt;div style=&quot;font-family: Consolas, &amp;quot;Courier New&amp;quot;, monospace; font-size: 14px; line-height: 19px;&quot;&gt;&lt;br&gt;&lt;/div&gt;" style="rounded=0;whiteSpace=wrap;html=1;dashed=1;fontColor=default;labelBackgroundColor=none;" vertex="1" parent="XPM9AESgH1F6cBTV4E59-38">
          <mxGeometry x="-90" y="-40" width="190" height="470" as="geometry" />
        </mxCell>
        <mxCell id="XPM9AESgH1F6cBTV4E59-9" value="&lt;span style=&quot;font-family: Consolas, &amp;quot;Courier New&amp;quot;, monospace; font-size: 14px;&quot;&gt;ais_open_csi_op&lt;/span&gt;" style="text;html=1;strokeColor=default;fillColor=none;align=center;verticalAlign=middle;whiteSpace=wrap;rounded=0;labelBackgroundColor=none;fontColor=default;" vertex="1" parent="XPM9AESgH1F6cBTV4E59-38">
          <mxGeometry x="-40" y="60" width="112.32786885245902" height="30" as="geometry" />
        </mxCell>
        <mxCell id="XPM9AESgH1F6cBTV4E59-13" value="&lt;div&gt;&lt;span style=&quot;mso-spacerun:&#39;yes&#39;;font-size:7.80086pt;font-family:微软雅黑;color:rgb(50,50,50);&quot;&gt;client_set_valid_channels&lt;/span&gt;&lt;/div&gt;" style="rounded=0;whiteSpace=wrap;html=1;labelBackgroundColor=default;fontColor=#000000;" vertex="1" parent="XPM9AESgH1F6cBTV4E59-38">
          <mxGeometry x="196.5737704918033" width="149.7704918032787" height="30" as="geometry" />
        </mxCell>
        <mxCell id="XPM9AESgH1F6cBTV4E59-15" value="&lt;div&gt;&lt;span style=&quot;mso-spacerun:&#39;yes&#39;;font-size:7.80086pt;font-family:微软雅黑;color:rgb(50,50,50);&quot;&gt;client_set_stream_callback&lt;/span&gt;&lt;/div&gt;" style="rounded=0;whiteSpace=wrap;html=1;labelBackgroundColor=default;fontColor=#000000;" vertex="1" parent="XPM9AESgH1F6cBTV4E59-38">
          <mxGeometry x="196.5737704918033" y="40" width="149.7704918032787" height="30" as="geometry" />
        </mxCell>
        <mxCell id="XPM9AESgH1F6cBTV4E59-16" value="&lt;div&gt;&lt;span style=&quot;mso-spacerun:&#39;yes&#39;;font-size:7.80086pt;font-family:微软雅黑;color:rgb(50,50,50);&quot;&gt;client_set_timeout_except_callback&lt;/span&gt;&lt;/div&gt;" style="rounded=0;whiteSpace=wrap;html=1;labelBackgroundColor=default;fontColor=#000000;" vertex="1" parent="XPM9AESgH1F6cBTV4E59-38">
          <mxGeometry x="196.57" y="80" width="203.43" height="30" as="geometry" />
        </mxCell>
        <mxCell id="XPM9AESgH1F6cBTV4E59-17" value="&lt;div&gt;&lt;span style=&quot;mso-spacerun:&#39;yes&#39;;font-size:7.80086pt;font-family:微软雅黑;color:rgb(50,50,50);&quot;&gt;client_set_heartbeat_except_callback&amp;nbsp;&lt;/span&gt;&lt;/div&gt;" style="rounded=0;whiteSpace=wrap;html=1;labelBackgroundColor=default;fontColor=#000000;" vertex="1" parent="XPM9AESgH1F6cBTV4E59-38">
          <mxGeometry x="196.57" y="120" width="213.43" height="30" as="geometry" />
        </mxCell>
        <mxCell id="XPM9AESgH1F6cBTV4E59-18" value="&lt;div&gt;&lt;span style=&quot;mso-spacerun:&#39;yes&#39;;font-size:7.80086pt;font-family:微软雅黑;color:rgb(50,50,50);&quot;&gt;client_set_hw_closed_notice_callback&amp;nbsp;&lt;/span&gt;&lt;/div&gt;" style="rounded=0;whiteSpace=wrap;html=1;labelBackgroundColor=default;fontColor=#000000;" vertex="1" parent="XPM9AESgH1F6cBTV4E59-38">
          <mxGeometry x="196.57" y="160" width="213.43" height="30" as="geometry" />
        </mxCell>
        <mxCell id="XPM9AESgH1F6cBTV4E59-19" value="" style="endArrow=classic;html=1;rounded=0;fontColor=#000000;exitX=1;exitY=0.5;exitDx=0;exitDy=0;entryX=0;entryY=0.5;entryDx=0;entryDy=0;" edge="1" parent="XPM9AESgH1F6cBTV4E59-38" source="XPM9AESgH1F6cBTV4E59-9" target="XPM9AESgH1F6cBTV4E59-13">
          <mxGeometry width="50" height="50" relative="1" as="geometry">
            <mxPoint x="112.32786885245902" y="110" as="sourcePoint" />
            <mxPoint x="159.13114754098362" y="60" as="targetPoint" />
            <Array as="points">
              <mxPoint x="168.49180327868854" y="75" />
              <mxPoint x="168.49180327868854" y="15" />
            </Array>
          </mxGeometry>
        </mxCell>
        <mxCell id="XPM9AESgH1F6cBTV4E59-24" value="" style="endArrow=classic;html=1;rounded=0;fontColor=#000000;entryX=0;entryY=0.5;entryDx=0;entryDy=0;" edge="1" parent="XPM9AESgH1F6cBTV4E59-38" target="XPM9AESgH1F6cBTV4E59-16">
          <mxGeometry width="50" height="50" relative="1" as="geometry">
            <mxPoint x="168.49180327868854" y="74.86000000000001" as="sourcePoint" />
            <mxPoint x="215.29508196721312" y="74.86000000000001" as="targetPoint" />
            <Array as="points">
              <mxPoint x="168.49180327868854" y="95" />
            </Array>
          </mxGeometry>
        </mxCell>
        <mxCell id="XPM9AESgH1F6cBTV4E59-25" value="" style="endArrow=classic;html=1;rounded=0;fontColor=#000000;entryX=0;entryY=0.5;entryDx=0;entryDy=0;" edge="1" parent="XPM9AESgH1F6cBTV4E59-38" target="XPM9AESgH1F6cBTV4E59-17">
          <mxGeometry width="50" height="50" relative="1" as="geometry">
            <mxPoint x="168.49180327868854" y="90" as="sourcePoint" />
            <mxPoint x="215.29508196721312" y="120" as="targetPoint" />
            <Array as="points">
              <mxPoint x="168.49180327868854" y="135" />
            </Array>
          </mxGeometry>
        </mxCell>
        <mxCell id="XPM9AESgH1F6cBTV4E59-26" value="" style="endArrow=classic;html=1;rounded=0;fontColor=#000000;" edge="1" parent="XPM9AESgH1F6cBTV4E59-38">
          <mxGeometry width="50" height="50" relative="1" as="geometry">
            <mxPoint x="168.49180327868854" y="130" as="sourcePoint" />
            <mxPoint x="196.5737704918033" y="180" as="targetPoint" />
            <Array as="points">
              <mxPoint x="168.49180327868854" y="180" />
            </Array>
          </mxGeometry>
        </mxCell>
        <mxCell id="XPM9AESgH1F6cBTV4E59-32" value="" style="endArrow=classic;html=1;rounded=0;fontColor=#000000;entryX=0;entryY=0.5;entryDx=0;entryDy=0;" edge="1" parent="XPM9AESgH1F6cBTV4E59-38" target="XPM9AESgH1F6cBTV4E59-15">
          <mxGeometry width="50" height="50" relative="1" as="geometry">
            <mxPoint x="168.49180327868854" y="70" as="sourcePoint" />
            <mxPoint x="215.29508196721312" y="40" as="targetPoint" />
            <Array as="points">
              <mxPoint x="168.49180327868854" y="55" />
            </Array>
          </mxGeometry>
        </mxCell>
        <mxCell id="XPM9AESgH1F6cBTV4E59-35" value="&lt;div&gt;&lt;span style=&quot;mso-spacerun:&#39;yes&#39;;font-size:7.80086pt;font-family:微软雅黑;color:rgb(50,50,50);&quot;&gt;client_open_csi&lt;/span&gt;&lt;/div&gt;" style="rounded=0;whiteSpace=wrap;html=1;labelBackgroundColor=default;fontColor=#000000;" vertex="1" parent="XPM9AESgH1F6cBTV4E59-38">
          <mxGeometry x="196.57" y="205" width="113.43" height="30" as="geometry" />
        </mxCell>
        <mxCell id="XPM9AESgH1F6cBTV4E59-36" value="" style="endArrow=classic;html=1;rounded=0;fontColor=#000000;entryX=-0.014;entryY=0.367;entryDx=0;entryDy=0;entryPerimeter=0;" edge="1" parent="XPM9AESgH1F6cBTV4E59-38" target="XPM9AESgH1F6cBTV4E59-35">
          <mxGeometry width="50" height="50" relative="1" as="geometry">
            <mxPoint x="169" y="170" as="sourcePoint" />
            <mxPoint x="193.57377049180332" y="215" as="targetPoint" />
            <Array as="points">
              <mxPoint x="169" y="216" />
            </Array>
          </mxGeometry>
        </mxCell>
        <mxCell id="XPM9AESgH1F6cBTV4E59-39" value="" style="endArrow=classic;html=1;rounded=0;fontColor=#000000;exitX=1;exitY=0.5;exitDx=0;exitDy=0;" edge="1" parent="XPM9AESgH1F6cBTV4E59-38" source="XPM9AESgH1F6cBTV4E59-35">
          <mxGeometry width="50" height="50" relative="1" as="geometry">
            <mxPoint x="310" y="260" as="sourcePoint" />
            <mxPoint x="370" y="220" as="targetPoint" />
          </mxGeometry>
        </mxCell>
        <mxCell id="XPM9AESgH1F6cBTV4E59-40" value="start_stream" style="rounded=0;whiteSpace=wrap;html=1;labelBackgroundColor=default;fontColor=#000000;strokeColor=default;" vertex="1" parent="XPM9AESgH1F6cBTV4E59-38">
          <mxGeometry x="370" y="200" width="90" height="40" as="geometry" />
        </mxCell>
        <mxCell id="XPM9AESgH1F6cBTV4E59-12" value="ais-client" style="text;html=1;strokeColor=none;fillColor=none;align=center;verticalAlign=middle;whiteSpace=wrap;rounded=0;dashed=1;labelBackgroundColor=default;fontColor=#000000;" vertex="1" parent="XPM9AESgH1F6cBTV4E59-38">
          <mxGeometry x="420" y="-30" width="60" height="30" as="geometry" />
        </mxCell>
        <mxCell id="XPM9AESgH1F6cBTV4E59-7" value="camera APP&lt;br&gt;" style="text;html=1;strokeColor=none;fillColor=none;align=center;verticalAlign=middle;whiteSpace=wrap;rounded=0;dashed=1;" vertex="1" parent="XPM9AESgH1F6cBTV4E59-38">
          <mxGeometry x="30" y="-40" width="60" height="30" as="geometry" />
        </mxCell>
        <mxCell id="XPM9AESgH1F6cBTV4E59-84" value="stop_stream" style="rounded=0;whiteSpace=wrap;html=1;labelBackgroundColor=default;fontSize=10;fontColor=#000000;strokeColor=default;" vertex="1" parent="XPM9AESgH1F6cBTV4E59-38">
          <mxGeometry x="180" y="300" width="120" height="30" as="geometry" />
        </mxCell>
        <mxCell id="XPM9AESgH1F6cBTV4E59-10" value="&lt;div style=&quot;font-family: Consolas, &amp;quot;Courier New&amp;quot;, monospace; font-size: 14px; line-height: 19px;&quot;&gt;&lt;span style=&quot;&quot;&gt;ais_close_csi_op&lt;/span&gt;&lt;/div&gt;" style="text;html=1;strokeColor=default;fillColor=none;align=center;verticalAlign=middle;whiteSpace=wrap;rounded=0;labelBackgroundColor=default;fontColor=#000000;" vertex="1" parent="XPM9AESgH1F6cBTV4E59-33">
          <mxGeometry y="320" width="130" height="30" as="geometry" />
        </mxCell>
        <mxCell id="XPM9AESgH1F6cBTV4E59-85" value="" style="endArrow=classic;html=1;rounded=0;fontSize=10;fontColor=#000000;exitX=1;exitY=0.5;exitDx=0;exitDy=0;" edge="1" parent="XPM9AESgH1F6cBTV4E59-33" source="XPM9AESgH1F6cBTV4E59-10" target="XPM9AESgH1F6cBTV4E59-84">
          <mxGeometry width="50" height="50" relative="1" as="geometry">
            <mxPoint y="35" as="sourcePoint" />
            <mxPoint x="330.71067811865476" y="685" as="targetPoint" />
          </mxGeometry>
        </mxCell>
        <mxCell id="XPM9AESgH1F6cBTV4E59-45" value="ais-server" style="text;html=1;strokeColor=none;fillColor=none;align=center;verticalAlign=middle;whiteSpace=wrap;rounded=0;labelBackgroundColor=default;fontColor=#000000;" vertex="1" parent="1">
          <mxGeometry x="1220" y="330" width="60" height="30" as="geometry" />
        </mxCell>
        <mxCell id="XPM9AESgH1F6cBTV4E59-46" value="&lt;div&gt;&lt;span style=&quot;font-size: 10px; font-family: 微软雅黑; color: rgb(50, 50, 50);&quot;&gt;ais_main_thread&lt;/span&gt;&lt;/div&gt;" style="rounded=0;whiteSpace=wrap;html=1;labelBackgroundColor=default;fontColor=#000000;strokeColor=default;" vertex="1" parent="1">
          <mxGeometry x="810" y="510" width="110" height="30" as="geometry" />
        </mxCell>
        <mxCell id="XPM9AESgH1F6cBTV4E59-47" value="mipi_init" style="rounded=0;whiteSpace=wrap;html=1;labelBackgroundColor=default;fontSize=10;fontColor=#000000;strokeColor=default;" vertex="1" parent="1">
          <mxGeometry x="1110" y="410" width="120" height="30" as="geometry" />
        </mxCell>
        <mxCell id="XPM9AESgH1F6cBTV4E59-51" value="vfe_init" style="rounded=0;whiteSpace=wrap;html=1;labelBackgroundColor=default;fontSize=10;fontColor=#000000;strokeColor=default;" vertex="1" parent="1">
          <mxGeometry x="1110" y="450" width="120" height="30" as="geometry" />
        </mxCell>
        <mxCell id="XPM9AESgH1F6cBTV4E59-52" value="ispif_init" style="rounded=0;whiteSpace=wrap;html=1;labelBackgroundColor=default;fontSize=10;fontColor=#000000;strokeColor=default;" vertex="1" parent="1">
          <mxGeometry x="1110" y="490" width="120" height="30" as="geometry" />
        </mxCell>
        <mxCell id="XPM9AESgH1F6cBTV4E59-55" value="buffer_init" style="rounded=0;whiteSpace=wrap;html=1;labelBackgroundColor=default;fontSize=10;fontColor=#000000;strokeColor=default;" vertex="1" parent="1">
          <mxGeometry x="1110" y="370" width="120" height="30" as="geometry" />
        </mxCell>
        <mxCell id="XPM9AESgH1F6cBTV4E59-56" value="camera open" style="rounded=0;whiteSpace=wrap;html=1;labelBackgroundColor=default;fontSize=10;fontColor=#000000;strokeColor=default;" vertex="1" parent="1">
          <mxGeometry x="970" y="420" width="80" height="30" as="geometry" />
        </mxCell>
        <mxCell id="XPM9AESgH1F6cBTV4E59-57" value="&amp;nbsp;srart_stream" style="rounded=0;whiteSpace=wrap;html=1;labelBackgroundColor=default;fontSize=10;fontColor=#000000;strokeColor=default;" vertex="1" parent="1">
          <mxGeometry x="970" y="600" width="70" height="30" as="geometry" />
        </mxCell>
        <mxCell id="XPM9AESgH1F6cBTV4E59-58" value="vfe strart" style="rounded=0;whiteSpace=wrap;html=1;labelBackgroundColor=default;fontSize=10;fontColor=#000000;strokeColor=default;" vertex="1" parent="1">
          <mxGeometry x="1110" y="570" width="120" height="22.5" as="geometry" />
        </mxCell>
        <mxCell id="XPM9AESgH1F6cBTV4E59-59" value="mipi strart" style="rounded=0;whiteSpace=wrap;html=1;labelBackgroundColor=default;fontSize=10;fontColor=#000000;strokeColor=default;" vertex="1" parent="1">
          <mxGeometry x="1110" y="600" width="120" height="20" as="geometry" />
        </mxCell>
        <mxCell id="XPM9AESgH1F6cBTV4E59-60" value="ispif strart" style="rounded=0;whiteSpace=wrap;html=1;labelBackgroundColor=default;fontSize=10;fontColor=#000000;strokeColor=default;" vertex="1" parent="1">
          <mxGeometry x="1110" y="630" width="120" height="20" as="geometry" />
        </mxCell>
        <mxCell id="XPM9AESgH1F6cBTV4E59-61" value="camera strart" style="rounded=0;whiteSpace=wrap;html=1;labelBackgroundColor=default;fontSize=10;fontColor=#000000;strokeColor=default;" vertex="1" parent="1">
          <mxGeometry x="1110" y="660" width="120" height="20" as="geometry" />
        </mxCell>
        <mxCell id="XPM9AESgH1F6cBTV4E59-62" value="vfe_event_poll_thread" style="rounded=0;whiteSpace=wrap;html=1;labelBackgroundColor=default;fontSize=10;fontColor=#000000;strokeColor=default;" vertex="1" parent="1">
          <mxGeometry x="805" y="750" width="120" height="25" as="geometry" />
        </mxCell>
        <mxCell id="XPM9AESgH1F6cBTV4E59-63" value="" style="endArrow=classic;html=1;rounded=0;fontSize=10;fontColor=#000000;exitX=1;exitY=0.5;exitDx=0;exitDy=0;entryX=0;entryY=0.5;entryDx=0;entryDy=0;" edge="1" parent="1" source="XPM9AESgH1F6cBTV4E59-46" target="XPM9AESgH1F6cBTV4E59-56">
          <mxGeometry width="50" height="50" relative="1" as="geometry">
            <mxPoint x="900" y="540" as="sourcePoint" />
            <mxPoint x="950" y="490" as="targetPoint" />
            <Array as="points">
              <mxPoint x="940" y="525" />
              <mxPoint x="940" y="435" />
            </Array>
          </mxGeometry>
        </mxCell>
        <mxCell id="XPM9AESgH1F6cBTV4E59-64" value="" style="endArrow=classic;html=1;rounded=0;fontSize=10;fontColor=#000000;exitX=1;exitY=0.5;exitDx=0;exitDy=0;entryX=0;entryY=0.5;entryDx=0;entryDy=0;" edge="1" parent="1" source="XPM9AESgH1F6cBTV4E59-46" target="XPM9AESgH1F6cBTV4E59-57">
          <mxGeometry width="50" height="50" relative="1" as="geometry">
            <mxPoint x="890" y="620" as="sourcePoint" />
            <mxPoint x="940" y="570" as="targetPoint" />
            <Array as="points">
              <mxPoint x="940" y="525" />
              <mxPoint x="940" y="615" />
            </Array>
          </mxGeometry>
        </mxCell>
        <mxCell id="XPM9AESgH1F6cBTV4E59-65" value="" style="endArrow=classic;html=1;rounded=0;fontSize=10;fontColor=#000000;exitX=1;exitY=0.5;exitDx=0;exitDy=0;entryX=0;entryY=0.5;entryDx=0;entryDy=0;" edge="1" parent="1" source="XPM9AESgH1F6cBTV4E59-56" target="XPM9AESgH1F6cBTV4E59-55">
          <mxGeometry width="50" height="50" relative="1" as="geometry">
            <mxPoint x="1040" y="410" as="sourcePoint" />
            <mxPoint x="1090" y="360" as="targetPoint" />
            <Array as="points">
              <mxPoint x="1080" y="435" />
              <mxPoint x="1080" y="385" />
            </Array>
          </mxGeometry>
        </mxCell>
        <mxCell id="XPM9AESgH1F6cBTV4E59-66" value="" style="endArrow=classic;html=1;rounded=0;fontSize=10;fontColor=#000000;" edge="1" parent="1">
          <mxGeometry width="50" height="50" relative="1" as="geometry">
            <mxPoint x="1080" y="430" as="sourcePoint" />
            <mxPoint x="1110" y="470" as="targetPoint" />
            <Array as="points">
              <mxPoint x="1080" y="470" />
            </Array>
          </mxGeometry>
        </mxCell>
        <mxCell id="XPM9AESgH1F6cBTV4E59-69" value="" style="endArrow=classic;html=1;rounded=0;fontSize=10;fontColor=#000000;entryX=0;entryY=0.5;entryDx=0;entryDy=0;" edge="1" parent="1" target="XPM9AESgH1F6cBTV4E59-47">
          <mxGeometry width="50" height="50" relative="1" as="geometry">
            <mxPoint x="1080" y="425" as="sourcePoint" />
            <mxPoint x="1130" y="410" as="targetPoint" />
          </mxGeometry>
        </mxCell>
        <mxCell id="XPM9AESgH1F6cBTV4E59-70" value="" style="endArrow=classic;html=1;rounded=0;fontSize=10;fontColor=#000000;" edge="1" parent="1">
          <mxGeometry width="50" height="50" relative="1" as="geometry">
            <mxPoint x="1080" y="470" as="sourcePoint" />
            <mxPoint x="1110" y="510" as="targetPoint" />
            <Array as="points">
              <mxPoint x="1080" y="510" />
            </Array>
          </mxGeometry>
        </mxCell>
        <mxCell id="XPM9AESgH1F6cBTV4E59-71" value="" style="endArrow=classic;html=1;rounded=0;fontSize=10;fontColor=#000000;exitX=1;exitY=0.5;exitDx=0;exitDy=0;entryX=0;entryY=0.5;entryDx=0;entryDy=0;" edge="1" parent="1" source="XPM9AESgH1F6cBTV4E59-57" target="XPM9AESgH1F6cBTV4E59-58">
          <mxGeometry width="50" height="50" relative="1" as="geometry">
            <mxPoint x="1050" y="640" as="sourcePoint" />
            <mxPoint x="1100" y="590" as="targetPoint" />
            <Array as="points">
              <mxPoint x="1080" y="615" />
              <mxPoint x="1080" y="581" />
            </Array>
          </mxGeometry>
        </mxCell>
        <mxCell id="XPM9AESgH1F6cBTV4E59-72" value="" style="endArrow=classic;html=1;rounded=0;fontSize=10;fontColor=#000000;entryX=0;entryY=0.5;entryDx=0;entryDy=0;" edge="1" parent="1" target="XPM9AESgH1F6cBTV4E59-59">
          <mxGeometry width="50" height="50" relative="1" as="geometry">
            <mxPoint x="1080" y="610" as="sourcePoint" />
            <mxPoint x="1140" y="600" as="targetPoint" />
          </mxGeometry>
        </mxCell>
        <mxCell id="XPM9AESgH1F6cBTV4E59-73" value="" style="endArrow=classic;html=1;rounded=0;fontSize=10;fontColor=#000000;" edge="1" parent="1">
          <mxGeometry width="50" height="50" relative="1" as="geometry">
            <mxPoint x="1080" y="610" as="sourcePoint" />
            <mxPoint x="1110" y="640" as="targetPoint" />
            <Array as="points">
              <mxPoint x="1080" y="640" />
            </Array>
          </mxGeometry>
        </mxCell>
        <mxCell id="XPM9AESgH1F6cBTV4E59-74" value="" style="endArrow=classic;html=1;rounded=0;fontSize=10;fontColor=#000000;" edge="1" parent="1">
          <mxGeometry width="50" height="50" relative="1" as="geometry">
            <mxPoint x="1080" y="640" as="sourcePoint" />
            <mxPoint x="1110" y="670" as="targetPoint" />
            <Array as="points">
              <mxPoint x="1080" y="670" />
            </Array>
          </mxGeometry>
        </mxCell>
        <mxCell id="XPM9AESgH1F6cBTV4E59-75" value="" style="endArrow=none;dashed=1;html=1;dashPattern=1 3;strokeWidth=2;rounded=0;fontSize=10;fontColor=#000000;" edge="1" parent="1">
          <mxGeometry width="50" height="50" relative="1" as="geometry">
            <mxPoint x="1460" y="820" as="sourcePoint" />
            <mxPoint x="1460" y="180" as="targetPoint" />
          </mxGeometry>
        </mxCell>
        <mxCell id="XPM9AESgH1F6cBTV4E59-76" value="kernel" style="rounded=1;whiteSpace=wrap;html=1;labelBackgroundColor=default;fontSize=10;fontColor=#000000;strokeColor=default;dashed=1;" vertex="1" parent="1">
          <mxGeometry x="1510" y="260" width="120" height="520" as="geometry" />
        </mxCell>
        <mxCell id="XPM9AESgH1F6cBTV4E59-77" value="vfe-driver" style="rounded=0;whiteSpace=wrap;html=1;dashed=1;labelBackgroundColor=default;fontSize=10;fontColor=#000000;strokeColor=default;" vertex="1" parent="1">
          <mxGeometry x="1560" y="590" width="55" height="40" as="geometry" />
        </mxCell>
        <mxCell id="XPM9AESgH1F6cBTV4E59-78" value="v4l2 event" style="rounded=1;whiteSpace=wrap;html=1;dashed=1;labelBackgroundColor=default;fontSize=10;fontColor=#000000;strokeColor=default;" vertex="1" parent="1">
          <mxGeometry x="1520" y="570" width="30" height="80" as="geometry" />
        </mxCell>
        <mxCell id="XPM9AESgH1F6cBTV4E59-80" value="" style="endArrow=classic;startArrow=classic;html=1;rounded=0;fontSize=10;fontColor=#000000;exitX=1;exitY=0.5;exitDx=0;exitDy=0;entryX=-0.017;entryY=0.671;entryDx=0;entryDy=0;entryPerimeter=0;dashed=1;" edge="1" parent="1" source="XPM9AESgH1F6cBTV4E59-62" target="XPM9AESgH1F6cBTV4E59-76">
          <mxGeometry width="50" height="50" relative="1" as="geometry">
            <mxPoint x="1390" y="605" as="sourcePoint" />
            <mxPoint x="1460.7106781186549" y="555" as="targetPoint" />
            <Array as="points">
              <mxPoint x="1320" y="763" />
              <mxPoint x="1320" y="610" />
            </Array>
          </mxGeometry>
        </mxCell>
        <mxCell id="XPM9AESgH1F6cBTV4E59-83" value="v4l2 event" style="edgeLabel;html=1;align=center;verticalAlign=middle;resizable=0;points=[];fontSize=10;fontColor=#000000;" vertex="1" connectable="0" parent="XPM9AESgH1F6cBTV4E59-80">
          <mxGeometry x="-0.4911" y="2" relative="1" as="geometry">
            <mxPoint as="offset" />
          </mxGeometry>
        </mxCell>
        <mxCell id="XPM9AESgH1F6cBTV4E59-86" value="close_camera" style="rounded=0;whiteSpace=wrap;html=1;labelBackgroundColor=default;fontSize=10;fontColor=#000000;strokeColor=default;" vertex="1" parent="1">
          <mxGeometry x="970" y="690" width="75" height="30" as="geometry" />
        </mxCell>
        <mxCell id="XPM9AESgH1F6cBTV4E59-89" value="" style="endArrow=classic;html=1;rounded=0;fontSize=10;fontColor=#000000;entryX=0;entryY=0.5;entryDx=0;entryDy=0;" edge="1" parent="1" target="XPM9AESgH1F6cBTV4E59-86">
          <mxGeometry width="50" height="50" relative="1" as="geometry">
            <mxPoint x="940" y="610" as="sourcePoint" />
            <mxPoint x="960" y="660" as="targetPoint" />
            <Array as="points">
              <mxPoint x="940" y="705" />
            </Array>
          </mxGeometry>
        </mxCell>
        <mxCell id="XPM9AESgH1F6cBTV4E59-90" value="camera close" style="rounded=0;whiteSpace=wrap;html=1;labelBackgroundColor=default;fontSize=10;fontColor=#000000;strokeColor=default;" vertex="1" parent="1">
          <mxGeometry x="1110" y="695" width="120" height="20" as="geometry" />
        </mxCell>
        <mxCell id="XPM9AESgH1F6cBTV4E59-91" value="vfe mipi ispif close" style="rounded=0;whiteSpace=wrap;html=1;labelBackgroundColor=default;fontSize=10;fontColor=#000000;strokeColor=default;" vertex="1" parent="1">
          <mxGeometry x="1110" y="720" width="120" height="20" as="geometry" />
        </mxCell>
        <mxCell id="XPM9AESgH1F6cBTV4E59-92" value="" style="endArrow=classic;html=1;rounded=0;fontSize=10;fontColor=#000000;exitX=1;exitY=0.5;exitDx=0;exitDy=0;entryX=0;entryY=0.5;entryDx=0;entryDy=0;" edge="1" parent="1" source="XPM9AESgH1F6cBTV4E59-86" target="XPM9AESgH1F6cBTV4E59-90">
          <mxGeometry width="50" height="50" relative="1" as="geometry">
            <mxPoint x="1040" y="740" as="sourcePoint" />
            <mxPoint x="1110" y="700" as="targetPoint" />
          </mxGeometry>
        </mxCell>
        <mxCell id="XPM9AESgH1F6cBTV4E59-93" value="" style="endArrow=classic;html=1;rounded=0;fontSize=10;fontColor=#000000;entryX=0;entryY=0.5;entryDx=0;entryDy=0;" edge="1" parent="1">
          <mxGeometry width="50" height="50" relative="1" as="geometry">
            <mxPoint x="1080" y="705" as="sourcePoint" />
            <mxPoint x="1110" y="735" as="targetPoint" />
            <Array as="points">
              <mxPoint x="1080" y="715" />
              <mxPoint x="1080" y="735" />
            </Array>
          </mxGeometry>
        </mxCell>
      </root>
    </mxGraphModel>
  </diagram>
</mxfile>
